HIERARCHY
ROOT pelvis
{
  OFFSET 0 100 0
  CHANNELS 6 Xposition Yposition Zposition Zrotation Xrotation Yrotation
  JOINT pelvis_right_femur
  {
    OFFSET -10.78128 -3.44521 -0.5502486
    CHANNELS 3 Zrotation Xrotation Yrotation
    JOINT right_femur_tibia
    {
      OFFSET -0.8047443 -44.0398 -0.1307829
      CHANNELS 3 Zrotation Xrotation Yrotation
      JOINT right_tibia_foot
      {
        OFFSET 3.006224 -47.83518 -5
        CHANNELS 3 Zrotation Xrotation Yrotation
        End Site
        {
          OFFSET 0 -5 15
        }
      }
    }
  }
  JOINT pelvis_left_femur
  {
    OFFSET 10.78128 -3.44521 -0.5502486
    CHANNELS 3 Zrotation Xrotation Yrotation
    JOINT left_femur_tibia
    {
      OFFSET 0.8047443 -44.0398 -0.1307829
      CHANNELS 3 Zrotation Xrotation Yrotation
      JOINT left_tibia_foot
      {
        OFFSET -4.370144 -48.10324 -4.275266
        CHANNELS 3 Zrotation Xrotation Yrotation
        End Site
        {
          OFFSET 0 -5 15
        }
      }
    }
  }
  JOINT pelvis_spine1
  {
    OFFSET 0 6.468898 -3.129235
    CHANNELS 3 Zrotation Xrotation Yrotation
    JOINT spine1
    {
      OFFSET 0 23.15396 4.99043
      CHANNELS 3 Zrotation Xrotation Yrotation
      JOINT spine2
      {
        OFFSET 0 20.79997 -5.064912
        CHANNELS 3 Zrotation Xrotation Yrotation
        JOINT neck
        {
          OFFSET 0 14.38658 9.616178
          CHANNELS 3 Zrotation Xrotation Yrotation
          End Site
          {
            OFFSET 0 20 0
          }
        }
      }
      JOINT right_manubrium
      {
        OFFSET -5.722621 16.35077 3.967754
        CHANNELS 3 Zrotation Xrotation Yrotation
        JOINT right_clavicle
        {
          OFFSET -13.16364 1.694482 -4.693211
          CHANNELS 3 Zrotation Xrotation Yrotation
          JOINT right_humerus
          {
            OFFSET -28.5034 -0.3100689 -2.792744
            CHANNELS 3 Zrotation Xrotation Yrotation
            JOINT right_radius
            {
              OFFSET -25.15693 0.02248979 -1.271978
              CHANNELS 3 Zrotation Xrotation Yrotation
              End Site
              {
                OFFSET -15 0 0
              }
            }
          }
        }
      }
      JOINT left_manubrium
      {
        OFFSET 5.722621 16.35077 3.967754
        CHANNELS 3 Zrotation Xrotation Yrotation
        JOINT left_clavicle
        {
          OFFSET 13.16364 1.694482 -4.693211
          CHANNELS 3 Zrotation Xrotation Yrotation
          JOINT left_humerus
          {
            OFFSET 29.39168 -1.063119 -2.237045
            CHANNELS 3 Zrotation Xrotation Yrotation
            JOINT left_radius
            {
              OFFSET 24.59957 -0.9528479 0.9047498
              CHANNELS 3 Zrotation Xrotation Yrotation
              End Site
              {
                OFFSET 15 -0 -0
              }
            }
          }
        }
      }
    }
  }
}
MOTION
Frames: 13
Frame Time: 0.0416666666667
0 103.5113 0 1.138101 -0.1054146 0.07703067 4.42153 -15.62255 9.359602 -0 35.2813 -0 -5.586431 -21.30448 -3.365238 -7.268566 9.276705 -21.33564 -0 2.9911 -0 20.09686 -8.887345 28.16407 -2.087166 -1.817576 4.390803 2.427019 10.05205 -7.059702 1.209617 21.65133 7.289833 3.503004 -24.89985 9.651497 5.395928 -18.41173 11.23613 87.17105 37.14075 -19.20673 -0 0 12.45835 -8.96131 8.61023 5.297073 6.517838 -20.73693 -1.887355 -91.50903 21.83912 19.44009 0 0 -16.44949 13.46641 12.64235 -1.674427
0.3766214 103.6468 1.611818 0.5690745 0.8749622 0.1505947 5.868487 -19.39203 10.53223 -0 35.90963 -0 -5.004119 -20.33708 -3.584984 -7.083579 10.0516 -21.07595 -0 3.839134 -0 20.44805 -9.605865 28.35939 -2.146894 -1.759641 4.054242 2.706694 10.03126 -7.301678 1.186916 21.5076 7.44893 3.404849 -25.2935 9.980542 5.435042 -18.22186 11.32097 87.77391 37.59373 -20.00453 -0 0 11.82422 -8.244278 8.718783 5.101946 6.4467 -20.70286 -2.004824 -90.51758 21.50849 18.30951 0 0 -18.24652 14.11705 12.00062 -2.601538
0.7441278 103.611 3.370367 0.7082973 0.4923439 0.1980547 5.504754 -20.30593 9.495364 -0 34.50523 -0 -4.956556 -17.72728 -3.158966 -7.258214 10.93046 -21.01085 -0 4.71198 -0 18.07532 -11.91279 27.90209 -2.136417 -1.779805 4.012057 2.790719 10.03396 -7.399981 1.180549 21.43149 7.479576 3.3626 -25.47969 10.07842 5.434437 -18.2206 11.3322 87.99875 37.68733 -20.34423 -0 0 11.70314 -7.952894 8.724493 4.985499 6.431036 -20.73869 -2.001397 -90.33999 21.55214 18.15699 0 0 -18.79672 14.18885 11.83623 -2.647671
1.092443 103.5195 5.302772 0.5404661 0.6425751 0.2320413 5.808866 -22.24523 9.000616 -0 32.98291 -0 -5.041843 -15.54615 -2.935388 -7.20693 11.49825 -20.59889 -0 5.639819 -0 16.70883 -13.52847 27.34431 -2.101464 -1.817137 3.959484 2.932354 10.04884 -7.569078 1.178524 21.29395 7.512741 3.275573 -25.79119 10.23851 5.434998 -18.21805 11.35372 88.3818 37.81555 -20.93424 -0 0 11.50266 -7.428373 8.745236 4.785343 6.390067 -20.8 -1.987238 -90.06929 21.6952 17.95291 0 0 -19.74625 14.22371 11.57412 -2.587576
1.418646 103.3639 7.437591 0.2990892 0.9892314 0.2725658 6.224762 -24.4303 8.623685 -0 31.19722 -0 -5.122909 -13.51109 -2.759773 -7.084717 11.9621 -20.10518 -0 6.479004 -0 15.38455 -15.06989 26.65124 -2.064145 -1.840272 3.909981 3.060113 10.06851 -7.715002 1.184495 21.17103 7.528898 3.184847 -26.04217 10.37517 5.439842 -18.1984 11.38169 88.70863 37.91679 -21.43721 -0 0 11.30732 -6.956474 8.788889 4.627655 6.334611 -20.83788 -1.98168 -89.80358 21.83293 17.75262 0 0 -20.62831 14.21304 11.33751 -2.481873
1.724517 103.1504 9.831229 0.01489494 1.479731 0.3405056 6.736635 -26.70438 8.260732 -0 29.00287 -0 -5.294205 -11.55813 -2.561862 -6.926187 12.32475 -19.44254 -0 7.370409 -0 14.4392 -16.26611 25.85664 -2.012806 -1.861957 3.87029 3.188915 10.09836 -7.862023 1.198584 21.04226 7.528305 3.080237 -26.27884 10.50451 5.447657 -18.16991 11.41517 89.0334 37.98808 -21.94613 -0 0 11.10575 -6.460629 8.847835 4.471812 6.263877 -20.87255 -1.976825 -89.54839 22.01588 17.57872 0 0 -21.53422 14.13308 11.11186 -2.271702
2.009916 102.888 12.54413 -0.2878175 2.035522 0.4568675 7.266745 -28.8894 7.855217 -0 26.53355 -0 -5.575627 -9.638124 -2.32593 -6.738572 12.67358 -18.67609 -0 8.418558 -0 13.64363 -17.16945 24.92185 -1.951545 -1.876718 3.84082 3.307895 10.13745 -7.995875 1.220601 20.92039 7.508955 2.969795 -26.46991 10.6117 5.459764 -18.12704 11.45387 89.32213 38.01852 -22.4101 -0 0 10.90698 -5.98721 8.921182 4.336036 6.181143 -20.89811 -1.978155 -89.31729 22.22325 17.43413 0 0 -22.38941 13.98618 10.91609 -1.973729
2.272446 102.5962 15.6334 -0.5951759 2.542687 0.6381076 7.752491 -30.72023 7.346569 -0 24.01362 -0 -6.045475 -7.769912 -2.046013 -6.513414 13.05164 -17.84992 -0 9.80077 -0 12.8599 -17.69429 23.80262 -1.879579 -1.885253 3.824543 3.414148 10.18687 -8.114965 1.249948 20.80749 7.469852 2.856521 -26.60951 10.69103 5.476434 -18.06925 11.49699 89.56932 37.99865 -22.82562 -0 0 10.71419 -5.544594 9.003427 4.219478 6.089286 -20.91822 -1.986844 -89.12263 22.45758 17.32885 0 0 -23.17127 13.76549 10.75767 -1.579545
2.506286 102.3111 19.14264 -0.9160872 2.89542 0.8913845 8.164972 -31.9601 6.719471 -0 21.73975 -0 -6.764324 -6.028884 -1.746384 -6.217679 13.46385 -17.01428 -0 11.73819 -0 11.85899 -17.77372 22.42517 -1.799163 -1.886084 3.823463 3.501492 10.24617 -8.213072 1.28526 20.70983 7.41071 2.746475 -26.68377 10.73318 5.497991 -17.99528 11.5434 89.75858 37.92069 -23.17117 -0 0 10.53386 -5.158662 9.08838 4.129379 5.992508 -20.93357 -2.005159 -88.97653 22.71039 17.26863 0 0 -23.83698 13.47027 10.64589 -1.094654
2.704298 102.0877 23.08927 -1.263336 2.991665 1.205272 8.502134 -32.3654 5.990055 -0 20.01022 -0 -7.761169 -4.563076 -1.468866 -5.815142 13.82438 -16.19544 -0 14.49021 -0 10.47443 -17.29358 20.73835 -1.713388 -1.878053 3.839871 3.563671 10.31421 -8.284304 1.324527 20.63345 7.332057 2.646213 -26.68127 10.72932 5.524274 -17.90568 11.59147 89.87438 37.77966 -23.42578 -0 0 10.37401 -4.856816 9.168565 4.07377 5.89553 -20.94516 -2.034283 -88.89032 22.97254 17.25874 0 0 -24.34531 13.10159 10.58755 -0.5269065
2.861932 101.9991 27.45436 -1.64169 2.76707 1.541677 8.78426 -31.74683 5.204374 -0 19.01001 -0 -8.992828 -3.557877 -1.268466 -5.284184 13.92845 -15.37875 -0 18.31426 -0 8.657326 -16.1401 18.74813 -1.627263 -1.859588 3.876308 3.592783 10.38842 -8.32086 1.365069 20.5859 7.235483 2.563757 -26.59028 10.67041 5.554574 -17.80323 11.63879 89.89786 37.57515 -23.56102 -0 0 10.24657 -4.674714 9.236106 4.064682 5.803884 -20.95266 -2.073961 -88.87538 23.23058 17.30398 0 0 -24.64709 12.66523 10.58886 0.1081827
2.982116 102.1253 32.1759 -2.025688 2.212015 1.833834 9.020488 -30.00075 4.404377 -0 18.69852 -0 -10.33416 -3.17242 -1.194455 -4.643783 13.45077 -14.49987 -0 23.38248 -0 6.559303 -14.25614 16.5615 -1.547305 -1.829261 3.936036 3.579606 10.4648 -8.313556 1.403734 20.5755 7.123771 2.507935 -26.40117 10.5487 5.587347 -17.69425 11.68195 89.80899 37.3128 -23.54328 -0 0 10.16828 -4.65338 9.283634 4.116971 5.723577 -20.95446 -2.121422 -88.94334 23.46894 17.41044 0 0 -24.68885 12.17195 10.65511 0.7887679
3.077681 102.5315 37.15115 -2.346387 1.375944 2.000335 9.175507 -27.14383 3.591298 -0 18.75067 -0 -11.61141 -3.447689 -1.260656 -3.961315 12.01936 -13.4676 -0 29.64495 -0 4.51861 -11.74001 14.38658 -1.481052 -1.78631 4.023456 3.513908 10.53787 -8.252169 1.437222 20.61049 7.00088 2.48756 -26.10845 10.3592 5.619864 -17.59003 11.71649 89.58813 37.00521 -23.33514 -0 0 10.16209 -4.836191 9.305561 4.24716 5.660642 -20.94731 -2.17059 -89.10616 23.67148 17.58741 0 0 -24.41642 11.63781 10.79067 1.487599
